<svg width="496" height="421" viewBox="0 0 496 421" fill="none" xmlns="http://www.w3.org/2000/svg">
<path d="M73.4762 324.622C73.4762 324.622 51.1022 94.1239 57.4382 92.8368C63.7742 91.5496 444.924 82.8366 447.102 92.8368C449.28 102.837 433.539 319.77 426.411 324.622C419.283 329.473 73.9712 329.671 73.4762 324.622Z" fill="#DFE3E8"/>
<path d="M79.9113 115.906H425.322L414.828 304.423L91.4943 308.681L79.9113 115.906Z" fill="white"/>
<path d="M257.022 100.164C257.022 100.164 251.775 100.461 254.349 106.005C256.923 111.55 261.18 109.669 262.269 106.005C263.358 102.342 259.002 99.4705 257.022 100.164Z" fill="#469F78"/>
<path d="M79.9113 115.906H425.322L424.431 131.946H80.8023L79.9113 115.906Z" fill="#98F6D0"/>
<path d="M153.567 145.016L146.043 131.946H424.431L423.738 145.016H153.567Z" fill="#F2EBEB"/>
<path d="M99.9092 136.204C99.9092 136.204 97.2362 136.303 98.6222 139.075C100.008 141.847 102.087 140.956 102.582 139.075C103.077 137.194 100.899 135.808 99.9092 136.204Z" fill="#EA8383"/>
<path d="M110.898 136.204C110.898 136.204 108.225 136.303 109.611 139.075C110.997 141.847 113.076 140.956 113.571 139.075C114.066 137.194 111.888 135.808 110.898 136.204Z" fill="#F3CB5C"/>
<path d="M120.501 136.204C120.501 136.204 117.828 136.303 119.214 139.075C120.6 141.847 122.679 140.956 123.174 139.075C123.669 137.194 121.491 135.808 120.501 136.204Z" fill="#469F78"/>
<path d="M79.9112 334.523C79.9112 334.523 31.2032 400.761 35.5592 401.652C39.9152 402.543 467.001 401.652 468.783 396.405C470.565 391.157 427.995 338.483 425.421 334.523C422.847 330.562 79.9112 334.523 79.9112 334.523Z" fill="#DFE3E8"/>
<path d="M40.8063 409.375L35.4603 401.652L468.684 396.405C468.684 396.405 467.199 406.504 458.586 409.375C449.973 412.247 52.2903 415.118 40.8063 409.375Z" fill="#000001"/>
<path d="M121.788 349.573C121.788 349.573 124.362 343.929 125.748 343.434C127.134 342.939 143.37 343.434 143.37 343.434C143.37 343.434 142.776 349.474 140.4 349.573C138.024 349.672 121.788 349.573 121.788 349.573Z" fill="#08AE98"/>
<path d="M154.062 349.573C154.062 349.573 156.636 343.929 157.923 343.434C159.21 342.939 175.545 343.434 175.545 343.434C175.545 343.434 174.951 349.474 172.575 349.573C170.199 349.672 154.062 349.573 154.062 349.573Z" fill="#08AE98"/>
<path d="M185.148 349.573C185.148 349.573 187.722 343.929 189.108 343.434C190.494 342.939 206.73 343.434 206.73 343.434C206.73 343.434 206.136 349.474 203.76 349.573C201.384 349.672 185.148 349.573 185.148 349.573Z" fill="#08AE98"/>
<path d="M217.125 349.573C217.125 349.573 219.699 343.929 220.986 343.434C222.273 342.939 238.608 343.434 238.608 343.434C238.608 343.434 238.014 349.474 235.638 349.573C233.262 349.672 217.125 349.573 217.125 349.573Z" fill="#08AE98"/>
<path d="M249.498 349.573C249.498 349.573 252.072 343.929 253.458 343.434C254.844 342.939 268.011 343.434 268.011 343.434C268.011 343.434 270.387 349.474 268.011 349.573C265.635 349.672 249.498 349.573 249.498 349.573Z" fill="#08AE98"/>
<path d="M397.602 349.573C397.602 349.573 395.028 343.929 393.642 343.434C392.256 342.939 376.02 343.434 376.02 343.434C376.02 343.434 376.614 349.474 378.99 349.573C381.366 349.672 397.602 349.573 397.602 349.573Z" fill="#08AE98"/>
<path d="M365.427 349.573C365.427 349.573 362.853 343.929 361.467 343.434C360.081 342.939 343.845 343.434 343.845 343.434C343.845 343.434 344.439 349.474 346.815 349.573C349.191 349.672 365.427 349.573 365.427 349.573Z" fill="#08AE98"/>
<path d="M334.341 349.573C334.341 349.573 331.767 343.929 330.381 343.434C328.995 342.939 312.759 343.434 312.759 343.434C312.759 343.434 313.353 349.474 315.729 349.573C318.105 349.672 334.341 349.573 334.341 349.573Z" fill="#08AE98"/>
<path d="M302.265 349.573C302.265 349.573 299.691 343.929 298.404 343.434C297.117 342.939 280.782 343.434 280.782 343.434C280.782 343.434 281.376 349.474 283.752 349.573C286.128 349.672 302.265 349.573 302.265 349.573Z" fill="#08AE98"/>
<path d="M110.7 365.513C110.7 365.513 113.472 359.87 114.858 359.375C116.244 358.88 133.767 359.375 133.767 359.375C133.767 359.375 133.074 365.414 130.5 365.513C127.926 365.612 110.7 365.513 110.7 365.513Z" fill="#08AE98"/>
<path d="M145.251 365.513C145.251 365.513 148.023 359.87 149.409 359.375C150.795 358.88 168.318 359.375 168.318 359.375C168.318 359.375 167.625 365.414 165.051 365.513C162.477 365.612 145.251 365.513 145.251 365.513Z" fill="#08AE98"/>
<path d="M178.614 365.513C178.614 365.513 181.386 359.87 182.772 359.375C184.158 358.88 201.681 359.375 201.681 359.375C201.681 359.375 200.988 365.414 198.414 365.513C195.84 365.612 178.614 365.513 178.614 365.513Z" fill="#08AE98"/>
<path d="M212.967 365.513C212.967 365.513 215.739 359.87 217.125 359.375C218.511 358.88 236.034 359.375 236.034 359.375C236.034 359.375 235.341 365.414 232.866 365.513C230.391 365.612 212.967 365.513 212.967 365.513Z" fill="#08AE98"/>
<path d="M247.716 365.513C247.716 365.513 250.488 359.87 251.874 359.375C253.26 358.88 267.516 359.375 267.516 359.375C267.516 359.375 270.09 365.414 267.516 365.513C264.942 365.612 247.716 365.513 247.716 365.513Z" fill="#08AE98"/>
<path d="M406.611 365.513C406.611 365.513 403.839 359.87 402.453 359.375C401.067 358.88 383.544 359.375 383.544 359.375C383.544 359.375 384.237 365.414 386.811 365.513C389.385 365.612 406.611 365.513 406.611 365.513Z" fill="#08AE98"/>
<path d="M372.06 365.513C372.06 365.513 369.288 359.87 367.902 359.375C366.516 358.88 348.993 359.375 348.993 359.375C348.993 359.375 349.686 365.414 352.26 365.513C354.834 365.612 372.06 365.513 372.06 365.513Z" fill="#08AE98"/>
<path d="M338.697 365.513C338.697 365.513 335.925 359.87 334.539 359.375C333.153 358.88 315.63 359.375 315.63 359.375C315.63 359.375 316.323 365.414 318.798 365.513C321.273 365.612 338.697 365.513 338.697 365.513Z" fill="#08AE98"/>
<path d="M304.344 365.513C304.344 365.513 301.572 359.87 300.186 359.375C298.8 358.88 281.277 359.375 281.277 359.375C281.277 359.375 281.97 365.414 284.544 365.513C287.118 365.612 304.344 365.513 304.344 365.513Z" fill="#08AE98"/>
<path d="M236.331 374.919C236.331 374.919 274.05 374.127 279.099 374.919C284.148 375.712 290.088 389.474 288.9 389.474C287.712 389.474 231.381 390.266 231.48 387.89C231.579 385.514 236.331 374.919 236.331 374.919Z" fill="#469F78"/>
<path d="M200.889 201.452C203.463 202.145 205.938 203.036 208.314 204.224C210.69 205.313 212.967 206.6 215.145 207.888C217.323 209.274 219.501 210.66 221.58 212.343C223.659 213.927 225.639 215.709 227.421 217.69C224.847 216.997 222.372 216.106 219.996 214.917C217.62 213.828 215.343 212.541 213.165 211.254C210.987 209.868 208.809 208.383 206.829 206.798C204.552 205.313 202.572 203.432 200.889 201.452Z" fill="#05958F"/>
<path d="M227.322 195.709C227.025 195.907 226.728 196.204 226.53 196.501C226.332 196.798 226.035 197.095 225.837 197.392L224.451 199.274C223.461 200.462 222.471 201.65 221.481 202.838C219.501 205.214 217.422 207.492 215.244 209.67C213.066 211.848 210.789 213.927 208.512 216.007C206.136 218.086 203.661 219.967 200.988 221.65C202.473 218.878 204.255 216.304 206.235 213.828C208.215 211.452 210.195 209.076 212.373 206.897C214.551 204.719 216.828 202.64 219.303 200.66C220.491 199.67 221.778 198.779 223.065 197.887C223.758 197.491 224.451 196.996 225.144 196.699C225.738 196.204 226.53 195.907 227.322 195.709Z" fill="#05958F"/>
<path d="M194.157 259.769C195.048 258.878 195.84 257.789 196.731 256.799C197.622 255.809 198.513 254.819 199.404 253.928C201.186 252.047 203.067 250.165 205.047 248.383C208.908 244.819 213.066 241.551 217.422 238.581C221.778 235.611 226.431 232.937 231.282 230.759C236.133 228.581 241.182 226.799 246.429 225.512C251.676 224.323 257.022 223.63 262.368 223.63C265.041 223.63 267.714 223.828 270.387 224.125C273.06 224.422 275.733 224.918 278.307 225.611C283.455 226.898 288.405 228.779 293.157 231.155C297.81 233.531 302.265 236.403 306.324 239.769C301.77 237.195 297.117 234.918 292.266 232.937C289.89 232.046 287.415 231.155 284.94 230.462C283.752 230.066 282.465 229.769 281.277 229.472C280.089 229.175 278.802 228.878 277.515 228.68C272.466 227.69 267.417 227.294 262.368 227.492C257.319 227.591 252.27 228.284 247.32 229.472C237.321 231.947 227.817 235.908 219.105 241.353C214.65 244.027 210.393 246.898 206.334 250.066C204.255 251.65 202.275 253.235 200.196 254.918C198.117 256.601 196.137 258.185 194.157 259.769Z" fill="#05958F"/>
<path d="M311.076 203.333C309.294 205.313 307.314 207.095 305.136 208.68C303.057 210.264 300.879 211.749 298.602 213.135C296.325 214.521 294.048 215.709 291.573 216.799C289.098 217.987 286.623 218.878 283.95 219.472C285.732 217.492 287.712 215.709 289.89 214.125C294.147 210.957 298.602 208.185 303.453 206.006C305.928 204.917 308.502 203.927 311.076 203.333Z" fill="#05958F"/>
<path d="M283.95 197.59C284.742 197.788 285.534 198.086 286.227 198.482C286.92 198.878 287.613 199.274 288.306 199.67C289.692 200.561 290.979 201.452 292.167 202.442C294.642 204.422 297.018 206.501 299.196 208.68C301.473 210.858 303.552 213.234 305.532 215.61C307.611 218.086 309.393 220.66 310.977 223.432C308.304 221.749 305.73 219.868 303.255 217.789C300.879 215.809 298.503 213.63 296.325 211.452C294.147 209.274 291.969 206.997 289.89 204.62C288.9 203.432 287.811 202.244 286.821 201.056L285.336 199.175C285.138 198.878 284.841 198.581 284.544 198.284C284.544 198.086 284.247 197.788 283.95 197.59Z" fill="#05958F"/>
<path d="M63.1802 111.946C64.6652 109.273 65.9522 106.599 67.2392 103.827C68.5262 101.055 69.6152 98.2823 70.6052 95.411C71.1002 94.0248 71.3972 92.5397 71.6942 91.0545C71.9912 89.6684 71.9912 88.1832 71.6942 86.698C71.4962 86.0049 71.1992 85.4109 70.6052 85.0148C70.0112 84.6188 69.4172 84.4208 68.7242 84.4208C67.2392 84.5198 65.8532 84.8168 64.4672 85.4109C61.6952 86.5 59.0222 87.8862 56.5472 89.5694C54.0722 91.1535 51.8942 93.1338 50.0132 95.51C49.1222 96.5991 48.4292 97.8863 48.0332 99.2724C47.8352 99.8665 47.8352 100.461 48.1322 101.055C48.4292 101.55 48.9242 101.748 49.4192 101.649C50.8052 101.451 52.0922 100.956 53.2802 100.164C54.5672 99.3714 55.7552 98.4803 56.8442 97.4902C59.0222 95.51 60.9032 93.2328 62.3882 90.6585C63.8732 88.0842 65.2592 85.4109 66.2492 82.6386C67.3382 79.8663 68.1302 76.9949 68.7242 74.0246C69.3182 71.1533 69.5162 68.1829 69.4172 65.2126C69.3182 63.8265 68.9222 62.4403 68.4272 61.0542C67.9322 59.767 67.1402 58.7769 65.9522 57.9848C64.7642 57.2917 63.4772 57.0937 62.0912 57.1927C60.7052 57.2917 59.3192 57.6878 57.9332 58.1828C55.1612 59.272 52.5872 60.7571 50.2112 62.4403C47.7362 64.1235 45.3602 65.9057 42.9842 67.7869C38.3312 71.5493 33.8762 75.6088 29.7182 79.8663C25.4612 84.1237 21.7982 88.7773 18.6302 93.9258C17.9372 95.114 17.3432 96.5001 16.8482 97.7873C16.6502 98.3813 16.5512 98.9754 16.6502 99.5695C16.6502 99.7675 16.7492 99.8665 16.8482 99.9655C17.0462 100.065 17.2442 100.164 17.4422 100.164C18.1352 100.164 18.7292 100.065 19.3232 99.8665C20.0162 99.6685 20.7092 99.3714 21.3032 99.0744C22.5902 98.3813 23.9762 97.6883 25.1642 96.8962C27.6392 95.312 30.0152 93.5298 32.2922 91.4506C34.5692 89.4703 36.6482 87.3911 38.7272 85.2129C42.7862 80.8564 46.6472 76.1038 50.0132 71.1533C51.6962 68.678 53.3792 66.1037 54.8642 63.5294C56.3492 60.9551 57.6362 58.1828 58.7252 55.4105C59.2202 54.0244 59.6162 52.5392 59.8142 51.153C59.9132 50.46 59.9132 49.6679 59.9132 48.9748C59.9132 48.2817 59.7152 47.5886 59.3192 46.9946C59.0222 46.4005 58.5272 45.9055 57.8342 45.6084C57.1412 45.3114 56.4482 45.1134 55.7552 45.1134C54.2702 45.0144 52.7852 45.2124 51.3002 45.5094C48.4292 46.3015 45.5582 47.2916 42.7862 48.5788C40.0142 49.8659 37.3412 51.2521 34.6682 52.7372C37.2422 51.153 39.9152 49.6679 42.5882 48.3807C45.2612 46.9946 48.1322 45.9055 51.1022 45.0144C52.5872 44.6183 54.1712 44.4203 55.6562 44.4203C56.4482 44.4203 57.2402 44.6183 57.9332 45.0144C58.7252 45.4104 59.3192 46.0045 59.7152 46.6975C60.1112 47.3906 60.3092 48.1827 60.4082 48.9748C60.5072 49.7669 60.5072 50.559 60.4082 51.3511C60.2102 52.8362 59.8142 54.4204 59.3192 55.9056C58.3292 58.7769 57.0422 61.5492 55.5572 64.2225C54.0722 66.8958 52.4882 69.4701 50.8052 72.0444C47.4392 77.0939 43.6772 81.9455 39.6182 86.401C35.5592 91.0545 31.0052 95.114 25.8572 98.4803C24.5702 99.2724 23.1842 100.065 21.7982 100.758C21.1052 101.055 20.3132 101.451 19.6202 101.649C18.8282 101.946 17.9372 102.144 17.0462 102.045C16.4522 102.045 15.9572 101.847 15.4622 101.55C14.9672 101.154 14.6702 100.659 14.5712 100.065C14.3732 99.1734 14.4722 98.2823 14.7692 97.3912C15.2642 95.9061 15.8582 94.4209 16.6502 93.0347C19.8182 87.7872 23.6792 82.9356 27.9362 78.5791C32.1932 74.1236 36.6482 70.0642 41.4002 66.3017C43.7762 64.4205 46.2512 62.6383 48.7262 60.8561C51.3002 59.0739 53.9732 57.5888 56.8442 56.4006C58.3292 55.8066 59.9132 55.4105 61.4972 55.3115C63.1802 55.1135 64.9622 55.5095 66.4472 56.4006C67.9322 57.3907 69.0212 58.7769 69.6152 60.3611C70.2092 61.8462 70.6052 63.4304 70.7042 65.0146C70.9022 68.0839 70.7042 71.2523 70.0112 74.3216C69.4172 77.292 68.5262 80.2623 67.3382 83.0346C66.2492 85.9059 64.8632 88.6782 63.2792 91.2525C61.6952 93.9258 59.7152 96.3021 57.3392 98.3813C56.1512 99.3714 54.8642 100.263 53.5772 101.055C52.1912 102.045 50.6072 102.54 49.0232 102.738C48.8252 102.738 48.5282 102.738 48.3302 102.639C48.1322 102.54 47.8352 102.54 47.6372 102.441C47.4392 102.342 47.1422 102.144 46.9442 101.946L46.6472 101.649L46.4492 101.352C46.0532 100.461 46.0532 99.5695 46.3502 98.6784C46.7462 97.0942 47.5382 95.708 48.5282 94.4209C50.5082 92.0446 52.7852 89.9654 55.4582 88.2822C58.0322 86.599 60.8042 85.2129 63.6752 84.1237C65.1602 83.5297 66.7442 83.2326 68.2292 83.2326C69.1202 83.2326 69.9122 83.5297 70.6052 84.0247C71.2982 84.5198 71.6942 85.3119 71.8922 86.104C72.1892 87.6881 72.1892 89.2723 71.7932 90.7575C71.4962 92.2426 71.1002 93.7278 70.6052 95.213C69.0212 101.352 66.3482 106.797 63.1802 111.946Z" fill="#469F78"/>
<path d="M348.993 198.284C348.993 198.284 347.706 252.74 351.666 261.354C355.626 269.968 464.427 268.185 474.723 264.819C485.019 261.453 483.435 204.719 468.783 198.383C454.131 192.046 349.092 191.848 348.993 198.284Z" fill="#000001"/>
<path d="M397.305 234.72L389.979 235.215L389.088 206.699C389.088 206.699 385.425 205.709 384.831 205.709C384.237 205.709 363.843 236.502 363.843 236.502V238.779H380.772L380.178 256.304H390.573L389.979 238.977L397.206 239.571L397.305 234.72ZM380.97 234.819C380.97 234.819 369.189 236.007 369.684 234.819C370.179 233.63 380.97 220.066 380.97 220.066V234.819Z" fill="white"/>
<path d="M462.249 233.729L454.923 234.225L454.032 205.709C454.032 205.709 450.369 204.719 449.775 204.719C449.181 204.719 428.787 235.512 428.787 235.512V237.789H445.716L445.122 255.314H455.517L455.022 237.987L462.15 238.581V233.729H462.249ZM445.914 233.828C445.914 233.828 434.133 235.017 434.628 233.828C435.123 232.64 445.914 219.076 445.914 219.076V233.828Z" fill="white"/>
<path d="M426.411 213.63C425.718 209.769 422.649 206.699 418.689 206.105C415.917 205.808 413.145 206.105 410.472 206.997C398.196 210.759 394.83 255.017 410.472 254.621C425.52 254.324 430.272 235.017 426.411 213.63ZM411.561 247.888C400.77 248.185 403.146 214.521 411.561 211.65C413.343 210.957 415.323 210.759 417.204 210.957C419.976 211.551 422.154 213.828 422.451 216.7C425.124 232.937 421.857 247.591 411.561 247.888Z" fill="white"/>
<path d="M374.337 142.54C370.575 143.728 367.011 145.412 363.645 147.392C360.279 149.273 357.21 151.748 354.636 154.62C352.062 157.491 350.379 160.956 349.785 164.719C349.587 166.6 349.587 168.481 349.785 170.362C349.884 171.253 350.082 172.244 350.28 173.135C350.379 173.531 350.577 173.927 350.676 174.323C350.775 174.62 350.973 174.917 351.171 175.115C351.27 175.214 351.27 175.214 351.27 175.214C351.27 175.214 351.27 175.214 351.369 175.214C351.369 175.214 351.468 175.214 351.468 175.115C351.765 174.917 351.963 174.62 352.062 174.323C352.359 173.63 352.557 172.739 352.458 171.947C352.458 171.154 352.062 170.461 351.567 169.966C350.973 169.471 350.181 169.174 349.389 169.075C348.498 168.976 347.607 168.976 346.716 169.174C345.825 169.273 344.835 169.471 343.944 169.768L342.558 170.164L341.271 170.659L340.578 170.956L339.984 171.253L338.796 171.947C335.529 173.828 333.054 176.798 331.668 180.363C330.975 182.145 330.777 183.927 330.876 185.808C331.074 187.689 331.668 189.472 332.658 191.056L333.054 191.749L332.361 192.046C330.777 192.739 329.391 193.63 328.104 194.719C326.817 195.808 325.827 197.194 325.035 198.779C324.837 199.175 324.639 199.571 324.54 199.967C324.342 200.363 324.243 200.759 324.144 201.155L323.847 202.442L323.748 203.729V204.422V205.115L323.847 206.402C323.946 207.294 324.144 208.086 324.342 208.977C324.144 208.086 323.847 207.294 323.649 206.402L323.451 205.115L323.352 204.422V202.442L323.649 201.155C323.748 200.759 323.847 200.264 323.946 199.868C324.045 199.472 324.144 198.977 324.342 198.581C325.035 196.897 326.025 195.313 327.312 194.026C328.599 192.739 330.183 191.65 331.767 190.858L331.47 191.848C330.282 190.066 329.589 188.184 329.292 186.105C329.094 184.026 329.292 181.947 329.985 179.966C331.47 176.006 334.143 172.739 337.707 170.56L339.093 169.768L339.786 169.372L340.479 169.075L341.865 168.481L343.35 167.986C344.34 167.689 345.33 167.491 346.32 167.293C347.409 167.095 348.498 167.095 349.488 167.194C350.676 167.293 351.765 167.788 352.656 168.58C353.547 169.471 354.141 170.56 354.24 171.848C354.339 173.036 354.141 174.224 353.646 175.214C353.349 175.808 352.953 176.303 352.458 176.699C352.26 176.798 352.161 176.897 351.963 176.996C351.765 177.095 351.567 177.095 351.27 177.095C350.775 177.095 350.379 176.996 349.983 176.699C349.488 176.303 348.993 175.808 348.795 175.115C348.597 174.62 348.399 174.125 348.3 173.531C348.102 172.541 347.904 171.551 347.805 170.461C347.607 168.382 347.607 166.402 347.904 164.323C348.597 160.263 350.577 156.501 353.448 153.531C356.22 150.659 359.487 148.283 363.15 146.501C366.714 144.917 370.476 143.53 374.337 142.54Z" fill="#469F78"/>
<path d="M23.7782 165.313C23.7782 165.313 22.4912 219.769 26.4512 228.284C30.4112 236.799 139.212 235.116 149.508 231.749C159.804 228.383 158.22 171.65 143.568 165.313C128.916 158.976 23.8772 158.778 23.7782 165.313Z" fill="#3ACEAD"/>
<mask id="mask0_2011_9355" style="mask-type:luminance" maskUnits="userSpaceOnUse" x="23" y="160" width="134" height="75">
<path d="M23.7782 165.313C23.7782 165.313 22.4912 219.769 26.4512 228.284C30.4112 236.799 139.212 235.116 149.508 231.749C159.804 228.383 158.22 171.65 143.568 165.313C128.916 158.976 23.9762 158.778 23.7782 165.313Z" fill="white"/>
</mask>
<g mask="url(#mask0_2011_9355)">
<path d="M188.91 285.017H188.811L-25.1278 217.69C-25.4248 217.591 -25.5238 217.294 -25.4248 217.096C-25.3258 216.799 -25.0288 216.7 -24.8308 216.799L189.108 284.126C189.405 284.126 189.603 284.423 189.504 284.72C189.504 284.918 189.207 285.116 188.91 285.017Z" fill="white"/>
<path d="M193.266 269.868H193.167L-21.4648 206.501C-21.7618 206.402 -21.8608 206.105 -21.7618 205.907C-21.6628 205.61 -21.3658 205.511 -21.1678 205.61L193.464 268.977C193.761 269.076 193.86 269.274 193.761 269.571C193.662 269.769 193.464 269.868 193.266 269.868Z" fill="white"/>
<path d="M197.226 255.809H197.127L-17.9997 194.224C-18.2967 194.125 -18.3957 193.927 -18.2967 193.63C-18.1977 193.333 -17.9997 193.234 -17.7027 193.333L197.424 254.918C197.721 255.017 197.82 255.314 197.721 255.512C197.721 255.71 197.523 255.809 197.226 255.809Z" fill="white"/>
<path d="M201.087 242.442H200.988L-14.6338 182.145C-14.9308 182.046 -15.0298 181.749 -14.9308 181.551C-14.8318 181.254 -14.5348 181.155 -14.3368 181.155L201.285 241.452C201.582 241.551 201.681 241.848 201.582 242.046C201.483 242.343 201.285 242.442 201.087 242.442Z" fill="white"/>
<path d="M205.245 228.086H205.146L-11.5648 172.145C-11.8618 172.046 -11.9608 171.848 -11.9608 171.55C-11.8618 171.253 -11.6638 171.154 -11.3668 171.154L205.344 227.096C205.641 227.096 205.839 227.393 205.74 227.69C205.641 227.987 205.542 228.086 205.245 228.086Z" fill="white"/>
<path d="M208.809 215.808H208.71L-8.49579 161.253C-8.79279 161.154 -8.89178 160.956 -8.89178 160.659C-8.79278 160.362 -8.59478 160.263 -8.29778 160.263L208.908 214.917C209.205 214.917 209.403 215.214 209.304 215.511C209.205 215.808 209.106 215.907 208.809 215.808Z" fill="white"/>
<path d="M210.987 208.086L-6.51574 154.323C-6.81274 154.223 -6.91174 154.025 -6.91174 153.728C-6.81274 153.431 -6.61474 153.332 -6.31774 153.332L210.987 207.194C211.284 207.293 211.383 207.491 211.383 207.788C211.383 207.987 211.185 208.086 210.987 208.086Z" fill="white"/>
<path d="M212.868 201.452H212.769L-3.94177 145.511C-4.23877 145.412 -4.33777 145.214 -4.33777 144.917C-4.23877 144.62 -4.04077 144.521 -3.74377 144.521L212.967 200.462C213.264 200.462 213.462 200.759 213.363 201.056C213.264 201.353 213.165 201.452 212.868 201.452Z" fill="white"/>
<path d="M16.0562 282.542H15.9572C15.6602 282.443 15.5612 282.245 15.6602 281.948L67.5362 100.559C67.6352 100.262 67.9322 100.163 68.1302 100.262C68.4272 100.361 68.5262 100.659 68.4272 100.857L16.5512 282.146C16.4522 282.344 16.2542 282.542 16.0562 282.542Z" fill="white"/>
<path d="M5.16622 279.077H4.96822C4.67122 278.978 4.57222 278.68 4.67122 278.482L58.1312 100.163C58.2302 99.8665 58.5272 99.7675 58.7252 99.7675C59.0222 99.8665 59.1212 100.163 59.1212 100.362L5.66122 278.68C5.56222 278.978 5.36422 279.077 5.16622 279.077Z" fill="white"/>
<path d="M-6.91174 275.71H-7.01074C-7.30774 275.611 -7.40674 275.314 -7.40674 275.116L32.1933 136.6C32.2923 136.303 32.4903 136.203 32.7873 136.303C33.0843 136.402 33.1833 136.6 33.0843 136.897L-6.51574 275.413C-6.51574 275.512 -6.71374 275.71 -6.91174 275.71Z" fill="white"/>
<path d="M57.8342 303.928H57.6362C57.3392 303.829 57.2402 303.532 57.3392 303.334L128.124 76.7968C128.223 76.4998 128.421 76.4008 128.718 76.4998C129.015 76.5988 129.114 76.8958 129.015 77.0938L58.2302 303.532C58.2302 303.73 58.0322 303.928 57.8342 303.928Z" fill="white"/>
<path d="M46.9442 300.265H46.8452C46.5482 300.166 46.4492 299.869 46.5482 299.671L113.274 72.4404C113.373 72.1433 113.67 72.0443 113.868 72.1433C114.165 72.2423 114.264 72.4404 114.165 72.7374L47.3402 299.968C47.3402 300.166 47.1422 300.265 46.9442 300.265Z" fill="white"/>
<path d="M34.8662 296.898H34.7672C34.4702 296.799 34.3712 296.601 34.4702 296.304L99.6122 68.5789C99.7112 68.2819 99.9092 68.1829 100.206 68.1829C100.503 68.2819 100.602 68.4799 100.503 68.7769L35.3612 296.502C35.2622 296.7 35.0642 296.898 34.8662 296.898Z" fill="white"/>
<path d="M23.0852 293.631H22.9862C22.6892 293.532 22.5902 293.334 22.5902 293.037L86.4452 64.8166C86.5442 64.5195 86.8412 64.4205 87.0392 64.4205C87.3362 64.5195 87.4352 64.8166 87.4352 65.0146L23.5802 293.235C23.4812 293.433 23.2832 293.631 23.0852 293.631Z" fill="white"/>
<path d="M13.1852 290.661H13.0862C12.7892 290.562 12.6902 290.364 12.6902 290.067L72.3872 60.7571C72.4862 60.4601 72.7832 60.3611 72.9812 60.3611C73.2782 60.4601 73.3772 60.7571 73.3772 60.9551L13.6802 290.265C13.5812 290.463 13.3832 290.661 13.1852 290.661Z" fill="white"/>
<path d="M2.59223 287.591H2.49323C2.19623 287.492 2.09723 287.294 2.09723 286.997L60.4082 57.2917C60.5072 56.9946 60.7052 56.8956 61.0022 56.8956C61.2992 56.9946 61.4972 57.1927 61.3982 57.4897L2.98823 287.195C2.98823 287.393 2.79023 287.591 2.59223 287.591Z" fill="white"/>
<path d="M-4.23876 285.611H-4.33776C-4.63476 285.512 -4.73376 285.314 -4.73376 285.017L52.7852 55.1135C52.8842 54.8164 53.0822 54.7174 53.3792 54.7174C53.6762 54.7174 53.7752 55.0144 53.7752 55.3115L-3.74376 285.215C-3.84276 285.413 -4.04076 285.611 -4.23876 285.611Z" fill="white"/>
<path d="M-12.8517 283.136H-12.9507C-13.2477 283.037 -13.3467 282.839 -13.3467 282.542L46.2513 53.2322C46.3503 52.9352 46.5483 52.8362 46.8453 52.8362C47.1423 52.8362 47.2413 53.1332 47.2413 53.4303L-12.4557 282.641C-12.4557 282.938 -12.6537 283.136 -12.8517 283.136Z" fill="white"/>
<path d="M182.673 189.57H182.574L6.55226 133.134C6.25526 133.035 6.15626 132.738 6.25526 132.54C6.35426 132.243 6.65126 132.144 6.84926 132.243L182.871 188.679C183.168 188.679 183.366 188.976 183.267 189.273C183.168 189.57 182.871 189.669 182.673 189.57Z" fill="white"/>
<path d="M186.93 174.422H186.831L10.1162 121.946C9.81921 121.847 9.72021 121.55 9.72021 121.352C9.81921 121.055 10.1162 120.956 10.3142 120.956L187.128 173.432C187.425 173.531 187.524 173.828 187.425 174.026C187.425 174.224 187.227 174.422 186.93 174.422Z" fill="white"/>
<path d="M143.667 333.137H143.568C143.271 333.038 143.172 332.741 143.271 332.543L214.056 106.005C214.155 105.708 214.353 105.609 214.65 105.708C214.947 105.807 215.046 106.104 214.947 106.302L144.162 332.84C144.063 333.038 143.865 333.137 143.667 333.137Z" fill="white"/>
<path d="M132.777 329.572H132.678C132.381 329.473 132.282 329.275 132.381 328.978L199.206 101.847C199.305 101.55 199.503 101.451 199.8 101.55C200.097 101.649 200.196 101.946 200.097 102.144L133.272 329.275C133.173 329.374 132.975 329.572 132.777 329.572Z" fill="white"/>
<path d="M120.699 326.107H120.6C120.303 326.008 120.204 325.711 120.303 325.513L185.445 97.7872C185.544 97.4901 185.841 97.3911 186.039 97.4901C186.336 97.5891 186.435 97.7872 186.336 98.0842L121.194 325.81C121.095 326.008 120.897 326.107 120.699 326.107Z" fill="white"/>
<path d="M108.918 322.839H108.819C108.522 322.74 108.423 322.542 108.522 322.245L172.278 94.0248C172.377 93.7278 172.674 93.6288 172.872 93.6288C173.169 93.7278 173.268 94.0248 173.268 94.2229L109.413 322.344C109.314 322.641 109.116 322.839 108.918 322.839Z" fill="white"/>
<path d="M99.0182 319.869C98.6222 319.77 98.5232 319.572 98.5232 319.275L158.121 90.0644C158.22 89.7673 158.418 89.6683 158.715 89.6683C159.012 89.6683 159.111 89.9654 159.111 90.2624L99.5132 319.572C99.4142 319.77 99.2162 319.869 99.0182 319.869Z" fill="white"/>
<path d="M88.4252 316.8H88.3262C88.0292 316.701 87.9302 316.503 87.9302 316.206L146.241 86.5989C146.34 86.3019 146.538 86.2029 146.835 86.2029C147.132 86.3019 147.231 86.4999 147.231 86.7969L88.9202 316.404C88.8212 316.602 88.6232 316.8 88.4252 316.8Z" fill="white"/>
<path d="M81.5942 314.819H81.4952C81.1982 314.72 81.0992 314.522 81.0992 314.225L138.717 84.4207C138.816 84.1237 139.014 84.0247 139.311 84.0247C139.608 84.1237 139.707 84.3217 139.707 84.6187L82.0892 314.522C81.9902 314.72 81.7922 314.819 81.5942 314.819Z" fill="white"/>
<path d="M72.9812 312.344H72.8822C72.5852 312.245 72.4862 312.047 72.4862 311.75L132.084 82.5395C132.183 82.2424 132.381 82.1434 132.678 82.1434C132.975 82.1434 133.074 82.4405 133.074 82.7375L73.4762 312.047C73.3772 312.245 73.1792 312.344 72.9812 312.344Z" fill="white"/>
</g>
<path d="M63.5762 206.204C61.2992 206.303 59.1212 205.412 57.5372 203.729C55.7552 202.046 54.8642 199.67 54.9632 197.194C54.8642 194.818 55.8542 192.541 57.6362 190.858C59.2202 189.273 61.3982 188.382 63.6752 188.481C68.4272 188.382 72.2882 192.046 72.4862 196.798C72.4862 196.897 72.4862 197.095 72.4862 197.194C72.5852 199.571 71.6942 201.947 69.9122 203.63C68.1302 205.511 65.8532 206.402 63.5762 206.204ZM63.5762 189.768C62.0912 189.669 60.6062 190.363 59.8142 191.65C58.8242 192.937 58.3292 194.818 58.3292 197.392C58.3292 199.967 58.8242 201.947 59.8142 203.135C60.7052 204.422 62.1902 205.115 63.7742 205.016C65.2592 205.016 66.7443 204.323 67.6353 203.135C68.6252 201.848 68.9222 199.967 68.9222 197.392C68.9222 194.818 68.6252 192.937 67.6353 191.749C66.6453 190.363 65.1602 189.669 63.5762 189.768Z" fill="#469F78"/>
<path d="M80.9012 206.6C79.7132 206.6 78.5252 206.105 77.7332 205.313C75.9512 203.333 75.9512 200.264 77.7332 198.283C78.5252 197.392 79.7132 196.798 81.0002 196.897C82.2872 196.897 83.4752 197.392 84.2672 198.283C86.0492 200.264 86.0492 203.333 84.2672 205.313C83.2772 206.204 82.0892 206.6 80.9012 206.6ZM80.9012 197.887C80.2082 197.887 79.6142 198.184 79.2182 198.679C78.7232 199.571 78.4262 200.66 78.4262 201.749C78.3272 202.838 78.6242 203.828 79.2182 204.719C80.0102 205.709 81.4952 205.808 82.3862 204.917C82.4852 204.818 82.5842 204.818 82.5842 204.719C83.0792 203.828 83.3762 202.838 83.2772 201.749C83.3762 200.66 83.0792 199.67 82.5842 198.679C82.1882 198.184 81.4952 197.887 80.9012 197.887Z" fill="#469F78"/>
<path d="M94.5632 207.095C93.6722 207.095 92.6822 206.798 91.9892 206.204V212.046H89.9102V197.293H91.9892V198.283C92.7812 197.59 93.7712 197.293 94.7612 197.293C95.9492 197.293 97.1372 197.788 97.9292 198.679C98.8202 199.67 99.2162 200.858 99.2162 202.244C99.2162 203.531 98.8202 204.818 97.9292 205.808C97.0382 206.6 95.7512 207.194 94.5632 207.095ZM94.2662 198.481C93.3752 198.481 92.4842 198.977 91.9892 199.769V204.719C92.2862 205.115 92.5832 205.412 92.9792 205.61C93.3752 205.808 93.7712 205.907 94.1672 205.907C94.8602 205.907 95.5532 205.61 95.9492 205.016C96.5432 204.125 96.8402 203.036 96.7412 201.947C96.8402 200.957 96.5432 200.066 95.9492 199.274C95.5532 198.779 94.9592 198.481 94.2662 198.481Z" fill="#469F78"/>
<path d="M103.077 204.917L103.275 204.818L103.671 205.313L103.077 205.907V204.917ZM105.354 206.6C104.364 206.402 103.572 205.709 103.176 204.917L104.067 204.323C104.364 205.016 104.859 205.412 105.552 205.61C105.849 205.709 106.245 205.61 106.542 205.412C106.839 205.214 106.938 204.917 107.037 204.62C107.136 204.323 107.037 203.927 106.839 203.729C106.443 203.234 106.047 202.838 105.453 202.442C104.859 201.947 104.265 201.452 103.77 200.759C103.473 200.264 103.374 199.571 103.473 198.977C103.572 198.382 103.968 197.788 104.463 197.392C105.057 196.897 105.75 196.798 106.443 196.897C107.334 197.095 108.027 197.59 108.324 198.382L107.433 198.977C107.037 198.283 106.641 197.986 106.245 197.887C105.948 197.788 105.651 197.887 105.453 197.986C105.255 198.085 105.057 198.382 105.057 198.58C104.958 198.878 105.057 199.175 105.255 199.373C105.651 199.769 106.047 200.165 106.542 200.561C107.433 201.056 108.126 201.749 108.522 202.64C108.72 203.135 108.72 203.729 108.621 204.323C108.522 205.115 108.027 205.709 107.433 206.204C106.839 206.6 106.047 206.699 105.354 206.6Z" fill="#469F78"/>
<path d="M120.798 206.699C120.402 206.699 120.006 206.501 119.709 206.204C119.115 205.61 119.115 204.62 119.709 204.026C120.006 203.729 120.402 203.531 120.798 203.63C121.194 203.63 121.59 203.828 121.986 204.026C122.283 204.323 122.481 204.719 122.481 205.115C122.481 205.511 122.283 205.907 121.986 206.204C121.59 206.501 121.194 206.699 120.798 206.699ZM121.392 201.749H120.303L119.61 192.838C119.61 192.244 119.412 190.759 119.313 189.471H122.382C122.283 190.759 122.184 192.343 122.184 192.838L121.392 201.749Z" fill="#469F78"/>
<path d="M144.756 148.679C145.152 151.055 145.548 153.332 146.142 155.709C146.34 156.798 146.736 157.986 147.132 159.075C147.132 159.174 147.231 159.273 147.33 159.372H147.231C147.429 159.273 147.726 159.075 147.924 158.976L149.409 157.986C151.389 156.6 153.27 155.214 155.25 153.827L160.992 149.669L162.972 148.283L162.279 150.659C160.992 155.016 159.804 159.372 158.517 163.63L157.527 162.441L167.427 161.154L177.327 159.966L179.703 159.669L178.119 161.451C174.258 166.006 170.298 170.56 166.338 175.115L165.942 174.026C169.11 174.917 172.278 175.808 175.446 176.798C178.614 177.788 181.782 178.679 184.95 179.669C181.683 178.976 178.515 178.283 175.248 177.59C171.981 176.897 168.813 176.105 165.645 175.412L164.655 175.214L165.348 174.323C169.11 169.669 172.872 165.016 176.733 160.362L177.525 161.946L167.625 163.234L157.725 164.422L156.24 164.62L156.636 163.234C157.923 158.877 159.309 154.62 160.695 150.263L161.982 151.154C158.022 153.827 154.062 156.501 150.102 159.075C149.607 159.372 149.112 159.669 148.518 160.065C148.221 160.263 147.924 160.362 147.627 160.461C147.429 160.56 147.231 160.56 147.033 160.461C146.934 160.362 146.736 160.263 146.637 160.164C146.538 159.966 146.439 159.867 146.34 159.669C145.944 158.481 145.647 157.293 145.548 156.105C145.152 153.431 144.954 151.055 144.756 148.679Z" fill="#08AE98"/>
<path d="M94.3652 47.0935C98.2472 47.0935 101.394 43.9462 101.394 40.0637C101.394 36.1813 98.2472 33.0339 94.3652 33.0339C90.4832 33.0339 87.3362 36.1813 87.3362 40.0637C87.3362 43.9462 90.4832 47.0935 94.3652 47.0935Z" fill="#DFE3E8"/>
<path d="M43.9742 313.334C48.1843 313.334 51.5972 309.921 51.5972 305.711C51.5972 301.5 48.1843 298.087 43.9742 298.087C39.7641 298.087 36.3512 301.5 36.3512 305.711C36.3512 309.921 39.7641 313.334 43.9742 313.334Z" fill="#DFE3E8"/>
<path d="M406.611 58.8759C412.188 58.8759 416.709 54.3543 416.709 48.7767C416.709 43.1991 412.188 38.6776 406.611 38.6776C401.034 38.6776 396.513 43.1991 396.513 48.7767C396.513 54.3543 401.034 58.8759 406.611 58.8759Z" fill="#DFE3E8"/>
<path d="M447.399 323.533C450.461 323.533 452.943 321.05 452.943 317.988C452.943 314.926 450.461 312.443 447.399 312.443C444.337 312.443 441.855 314.926 441.855 317.988C441.855 321.05 444.337 323.533 447.399 323.533Z" fill="#F2EBEB"/>
<path d="M290.286 60.6581L328.599 13.4298C328.599 13.4298 344.637 60.064 343.746 61.4502C342.855 62.8363 286.425 61.8462 290.286 60.6581Z" fill="#DFE3E8"/>
<path d="M323.847 30.1627L316.521 40.4599L312.858 45.6084L311.076 48.1827C310.482 48.9748 309.987 49.8659 309.591 50.757L309.492 50.955C309.492 50.856 309.492 50.757 309.492 50.757C309.492 50.658 309.393 50.559 309.393 50.46C309.294 50.361 309.195 50.262 309.096 50.262H309.294H309.69C310.185 50.262 310.68 50.262 311.175 50.361L314.343 50.46L320.679 50.559L333.351 50.757L332.559 51.9452C331.074 48.4798 329.688 44.9154 328.302 41.351L326.124 35.8063L323.847 30.1627ZM323.847 30.1627L326.322 35.2123L328.896 40.4599C330.678 44.0243 332.361 47.5887 334.044 51.3511L334.638 52.5392H333.252C328.995 52.6382 324.837 52.6382 320.58 52.6382C318.501 52.6382 316.323 52.5392 314.244 52.5392C313.155 52.5392 312.165 52.4402 311.076 52.4402C310.581 52.4402 309.987 52.3412 309.492 52.3412H309.096C308.898 52.3412 308.7 52.2422 308.502 52.2422H308.403C308.304 52.1432 308.106 52.0442 308.007 51.9452C307.908 51.8461 307.908 51.7471 307.809 51.6481C307.809 51.5491 307.71 51.3511 307.809 51.1531C307.809 51.0541 307.809 50.955 307.809 50.955C307.809 50.757 307.908 50.559 308.007 50.46C308.502 49.4699 309.096 48.5788 309.789 47.6877C310.383 46.7966 311.076 45.9055 311.67 45.1134C312.957 43.4302 314.244 41.747 315.63 40.1628C317.016 38.5787 318.303 36.8955 319.689 35.3113C321.075 33.7271 322.461 31.6479 323.847 30.1627Z" fill="white"/>
<path d="M321.669 43.8262C321.669 43.8262 322.263 34.7172 323.451 35.1133C324.639 35.5093 323.946 39.3707 321.669 43.8262Z" fill="white"/>
<path d="M320.877 46.7965C320.877 46.7965 319.293 48.7767 321.57 48.9747C323.847 49.1727 323.055 46.2024 320.877 46.7965Z" fill="white"/>
<path d="M185.94 64.6185L177.426 76.5988L170.1 62.6383C170.1 62.6383 151.785 62.8363 151.785 60.559C151.785 58.2818 150.498 21.7467 150.498 21.7467C150.498 21.7467 222.768 17.3902 223.263 19.6675C223.758 21.9447 229.5 63.4304 220.788 63.4304C212.076 63.4304 185.94 64.6185 185.94 64.6185Z" fill="#DFE3E8"/>
<path d="M212.67 47.9846C204.948 49.1728 197.127 50.2619 189.405 51.45C181.683 52.6382 173.862 53.6283 166.041 54.6184L164.556 54.8164C164.259 54.8164 164.061 54.8164 163.764 54.8164H163.566C163.467 54.8164 163.467 54.8164 163.368 54.8164C163.17 54.7174 162.675 54.5194 163.071 53.7273C163.269 53.5292 163.17 53.6283 163.269 53.5292C163.368 53.5292 163.368 53.4302 163.467 53.4302H163.566L163.962 53.3312L166.734 52.4401L172.377 50.6579C176.139 49.4698 179.901 48.2817 183.663 47.0935L206.136 40.0637L206.433 41.8459C195.246 42.44 184.158 42.9351 172.971 43.2321C170.199 43.2321 167.427 43.3311 164.556 43.2321H163.962C163.764 43.2321 163.467 43.2321 163.269 43.1331L163.071 43.0341C162.972 43.0341 162.972 42.9351 162.873 42.9351C162.774 42.836 162.576 42.737 162.576 42.539C162.477 42.242 162.477 41.945 162.576 41.6479C162.675 41.5489 162.774 41.4499 162.873 41.3509C162.972 41.2519 162.972 41.2519 163.071 41.2519C163.17 41.1529 163.269 41.1529 163.467 41.1529L163.962 40.9548L166.041 40.4598L170.1 39.4697L186.336 35.5092L202.572 31.6478L206.631 30.6577C207.324 30.4597 208.017 30.2616 208.512 30.0636H208.413C208.314 30.1626 208.017 30.2616 208.413 30.9547C208.512 31.0537 208.611 31.1527 208.71 31.1527H208.809H208.611H208.116H207.027L198.711 30.7567C193.167 30.4597 187.524 30.1626 181.98 29.8656L165.348 28.8755L182.079 29.2715C187.623 29.3705 193.266 29.4696 198.81 29.6676L207.126 29.8656H208.215H208.71H208.908H209.106C209.205 29.8656 209.403 29.9646 209.502 30.0636C209.898 30.7567 209.502 30.8557 209.403 30.9547L209.304 31.0537H209.205L209.106 31.1527C208.314 31.4498 207.72 31.6478 207.027 31.8458L202.968 32.9349C197.622 34.4201 192.177 35.8063 186.732 37.0934L170.496 41.1529L166.437 42.143L164.457 42.638L163.962 42.737H163.863C163.863 42.737 163.962 42.737 163.962 42.638C164.061 42.539 164.16 42.44 164.16 42.341C164.259 42.044 164.259 41.7469 164.16 41.5489C164.061 41.4499 163.962 41.3509 163.863 41.2519L163.764 41.1529H164.16H164.655C167.427 41.2519 170.199 41.1529 172.971 41.0539C184.059 40.6578 195.246 40.2618 206.433 39.7667L213.759 39.4697L206.73 41.7469L184.158 48.6777C180.396 49.8658 176.634 50.955 172.872 52.0441L167.229 53.7273L164.358 54.5194L163.962 54.6184H163.863C163.962 54.6184 163.863 54.6184 164.061 54.4204C164.457 53.6283 163.962 53.5292 163.764 53.3312H163.665C163.863 53.3312 164.16 53.3312 164.358 53.3312L165.843 53.2322C173.664 52.4401 181.485 51.45 189.207 50.5589L212.67 47.9846Z" fill="white"/>
</svg>
